<?xml version="1.0" encoding="UTF-8"?>
<svg width="30px" height="28px" viewBox="0 0 30 28" version="1.1" xmlns="http://www.w3.org/2000/svg" xmlns:xlink="http://www.w3.org/1999/xlink">
    <title>628AB3BF-1408-4EE6-BA7C-B6DA7D98DBCA@3x</title>
    <g id="10-Add-ons" stroke="none" stroke-width="1" fill="none" fill-rule="evenodd">
        <g transform="translate(-278.000000, -445.000000)" fill="#4FBC7B" fill-rule="nonzero" id="Group-8">
            <g transform="translate(88.000000, 422.000000)">
                <g id="Group-6" transform="translate(170.000000, 0.000000)">
                    <path d="M23.8085938,45.4296875 C23.8476562,45.4296875 23.8867188,45.4248047 23.9257812,45.4150391 C23.9648438,45.4052734 23.984375,45.4003906 23.984375,45.4003906 L24.0136719,45.4003906 L24.0136719,45.4003906 C24.6191406,45.3027344 25.2685547,45.0878906 25.9619141,44.7558594 C26.6552734,44.4238281 27.3144531,44.0527344 27.9394531,43.6425781 C28.5644531,43.2324219 29.1064453,42.8417969 29.5654297,42.4707031 C30.0244141,42.0996094 30.3222656,41.8359375 30.4589844,41.6796875 C30.7324219,41.71875 30.9716797,41.7431641 31.1767578,41.7529297 C31.3818359,41.7626953 31.5917969,41.7675781 31.8066406,41.7675781 L32.4511719,41.7675781 L32.4511719,41.7675781 C34.1308594,41.7675781 35.703125,41.5380859 37.1679688,41.0791016 C38.6328125,40.6201172 39.9023438,39.9707031 40.9765625,39.1308594 C42.0507812,38.2910156 42.890625,37.2802734 43.4960938,36.0986328 C44.1015625,34.9169922 44.3945312,33.6132812 44.375,32.1875 C44.375,30.9179688 44.0576172,29.7265625 43.4228516,28.6132812 C42.7880859,27.5 41.9238281,26.5332031 40.8300781,25.7128906 C39.7363281,24.8925781 38.4521484,24.2431641 36.9775391,23.7646484 C35.5029297,23.2861328 33.9257812,23.046875 32.2460938,23.046875 C30.546875,23.046875 28.9550781,23.2861328 27.4707031,23.7646484 C25.9863281,24.2431641 24.6875,24.8925781 23.5742188,25.7128906 C22.4609375,26.5332031 21.5869141,27.5 20.9521484,28.6132812 C20.3173828,29.7265625 20,30.9179688 20,32.1875 C20,32.96875 20.0976562,33.7597656 20.2929688,34.5605469 C20.4882812,35.3613281 20.78125,36.1230469 21.171875,36.8457031 C21.5625,37.5683594 22.0605469,38.2324219 22.6660156,38.8378906 C23.2714844,39.4433594 23.9746094,39.9511719 24.7753906,40.3613281 L24.7753906,40.4199219 L24.7753906,40.4199219 C24.7753906,41.1035156 24.5654297,41.8505859 24.1455078,42.6611328 C23.7255859,43.4716797 23.3984375,44.0722656 23.1640625,44.4628906 L23.1933594,44.4628906 C23.1738281,44.5019531 23.1591797,44.5410156 23.1494141,44.5800781 C23.1396484,44.6191406 23.1347656,44.6679688 23.1347656,44.7265625 C23.1347656,44.921875 23.1982422,45.0878906 23.3251953,45.2246094 C23.4521484,45.3613281 23.6132812,45.4296875 23.8085938,45.4296875 Z M25.9472656,42.734375 C26.2792969,41.8359375 26.4648438,41.2158203 26.5039062,40.8740234 C26.5332031,40.6176758 26.5515137,40.4574585 26.5588379,40.3933716 L26.5625,40.3613281 L26.5625,40.3613281 L26.6503906,39.21875 L25.625,38.6914062 C24.3359375,38.0273438 23.3886719,37.0800781 22.7832031,35.8496094 C22.1777344,34.6191406 21.875,33.3984375 21.875,32.1875 C21.875,31.171875 22.1435547,30.2246094 22.6806641,29.3457031 C23.2177734,28.4667969 23.9599609,27.7001953 24.9072266,27.0458984 C25.8544922,26.3916016 26.9580078,25.8740234 28.2177734,25.4931641 C29.4775391,25.1123047 30.8203125,24.921875 32.2460938,24.921875 C33.671875,24.921875 35.0097656,25.1123047 36.2597656,25.4931641 C37.5097656,25.8740234 38.59375,26.3916016 39.5117188,27.0458984 C40.4296875,27.7001953 41.1572266,28.4667969 41.6943359,29.3457031 C42.2314453,30.2246094 42.5,31.171875 42.5,32.1875 C42.5,33.3007812 42.2460938,34.3310547 41.7382812,35.2783203 C41.2304688,36.2255859 40.5322266,37.0458984 39.6435547,37.7392578 C38.7548828,38.4326172 37.7001953,38.9697266 36.4794922,39.3505859 C35.2587891,39.7314453 33.9355469,39.921875 32.5097656,39.921875 L31.953125,39.921875 L31.953125,39.921875 C31.5820312,39.921875 31.171875,39.8925781 30.7226562,39.8339844 L29.6972656,39.7460938 L28.4960938,40.7421875 C28.359375,40.9179688 28.0322266,41.2158203 27.5146484,41.6357422 C26.9970703,42.0556641 26.4746094,42.421875 25.9472656,42.734375 Z M46.3671875,50.703125 C46.5429688,50.703125 46.6894531,50.6445312 46.8066406,50.5273438 C46.9238281,50.4101562 46.9824219,50.2636719 46.9824219,50.0878906 C46.9824219,50.0488281 46.9775391,50.0097656 46.9677734,49.9707031 C46.9580078,49.9316406 46.9433594,49.8925781 46.9238281,49.8535156 C46.7285156,49.5214844 46.5136719,48.9550781 46.2792969,48.1542969 C46.0449219,47.3535156 45.9277344,46.6503906 45.9277344,46.0449219 L45.9277344,45.9863281 L45.9277344,45.9863281 C47.3144531,45.2832031 48.3398438,44.4091797 49.0039062,43.3642578 C49.6679688,42.3193359 50,41.1132812 50,39.7460938 C50,38.4765625 49.7314453,37.3535156 49.1943359,36.3769531 C48.6572266,35.4003906 47.7734375,34.5507812 46.5429688,33.828125 C46.5039062,34.1601562 46.4404297,34.5019531 46.3525391,34.8535156 C46.2646484,35.2050781 46.171875,35.5371094 46.0742188,35.8496094 C46.875,36.4160156 47.4169922,37.0019531 47.7001953,37.6074219 C47.9833984,38.2128906 48.125,38.9257812 48.125,39.7460938 C48.125,40.7617188 47.8808594,41.6455078 47.3925781,42.3974609 C46.9042969,43.1494141 46.1035156,43.8085938 44.9902344,44.375 L44.0820312,44.8144531 C44.0820312,44.8144531 44.1015625,45.2441406 44.140625,46.1035156 C44.1796875,46.9628906 44.2382812,47.5390625 44.3164062,47.8320312 C43.3984375,47.1679688 42.7587891,46.5917969 42.3974609,46.1035156 C42.0361328,45.6152344 41.8554688,45.3710938 41.8554688,45.3710938 L40.859375,45.5175781 C40.6640625,45.5566406 40.3759766,45.5761719 39.9951172,45.5761719 L39.4238281,45.5761719 L39.4238281,45.5761719 C38.1542969,45.5761719 37.03125,45.4248047 36.0546875,45.1220703 C35.078125,44.8193359 34.1894531,44.3554688 33.3886719,43.7304688 C33.5766602,43.7133789 33.3048248,43.7037659 32.5731659,43.7016296 L32.2314453,43.7011719 C31.2451172,43.7011719 30.7324219,43.7207031 30.6933594,43.7597656 C31.1621094,44.3261719 31.6992188,44.8388672 32.3046875,45.2978516 C32.9101562,45.7568359 33.5839844,46.1474609 34.3261719,46.4697266 C35.0683594,46.7919922 35.8642578,47.0361328 36.7138672,47.2021484 C37.5634766,47.3681641 38.4667969,47.4511719 39.4238281,47.4511719 L39.9804688,47.4511719 L39.9804688,47.4511719 C40.1757812,47.4511719 40.3613281,47.4462891 40.5371094,47.4365234 C40.7128906,47.4267578 40.9179688,47.4121094 41.1523438,47.3925781 C41.3671875,47.6660156 42.0019531,48.2421875 43.0566406,49.1210938 C44.1113281,50 45.15625,50.5273438 46.1914062,50.703125 L46.3671875,50.703125 L46.3671875,50.703125 Z" id="îŠ"></path>
                </g>
            </g>
        </g>
    </g>
</svg>