<?xml version="1.0" encoding="UTF-8"?>
<svg width="30px" height="31px" viewBox="0 0 30 31" version="1.1" xmlns="http://www.w3.org/2000/svg" xmlns:xlink="http://www.w3.org/1999/xlink">
    <title>34AC45FE-982C-4AD0-8A3B-7F55B5F572CF@3x</title>
    <g id="10-Add-ons" stroke="none" stroke-width="1" fill="none" fill-rule="evenodd">
        <g transform="translate(-448.000000, -443.000000)" fill="#4FBC7B" fill-rule="nonzero" id="Group-8">
            <g transform="translate(88.000000, 422.000000)">
                <g id="Group" transform="translate(340.000000, 0.000000)">
                    <path d="M48.4179688,47.1875 C48.8476562,47.1875 49.21875,47.0361328 49.53125,46.7333984 C49.84375,46.4306641 50,46.0546875 50,45.6054688 L50,43.2617188 C50,42.7929688 49.7363281,42.4121094 49.2089844,42.1191406 C48.6816406,41.8261719 48.4179688,41.6796875 48.4179688,41.6796875 L42.4414062,38.3984375 C43.5351562,37.5390625 44.2871094,36.3916016 44.6972656,34.9560547 C45.1074219,33.5205078 45.3125,32.3339844 45.3125,31.3964844 L45.3125,27.4414062 C45.3125,26.7773438 45.1074219,26.1132812 44.6972656,25.4492188 C44.2871094,24.7851562 43.75,24.1894531 43.0859375,23.6621094 C42.421875,23.1347656 41.6650391,22.7001953 40.8154297,22.3583984 C39.9658203,22.0166016 39.1015625,21.8457031 38.2226562,21.8457031 C37.0898438,21.8457031 35.9863281,22.1191406 34.9121094,22.6660156 C33.8378906,23.2128906 32.9589844,23.8867188 32.2753906,24.6875 C32.6660156,24.7070312 33.0664062,24.7265625 33.4765625,24.7460938 C33.8867188,24.765625 34.2773438,24.8339844 34.6484375,24.9511719 C35.1367188,24.5800781 35.6884766,24.2871094 36.3037109,24.0722656 C36.9189453,23.8574219 37.5585938,23.75 38.2226562,23.75 C39.5898438,23.75 40.8007812,24.1894531 41.8554688,25.0683594 C42.9101562,25.9472656 43.4375,26.7382812 43.4375,27.4414062 L43.4375,31.3964844 C43.4375,32.1191406 43.2763672,33.0615234 42.9541016,34.2236328 C42.6318359,35.3857422 42.0703125,36.2890625 41.2695312,36.9335938 C41.015625,37.1289062 40.8251953,37.3730469 40.6982422,37.6660156 C40.5712891,37.9589844 40.5273438,38.2617188 40.5664062,38.5742188 C40.5859375,38.8867188 40.6835938,39.1748047 40.859375,39.4384766 C41.0351562,39.7021484 41.2597656,39.9121094 41.5332031,40.0683594 L47.5097656,43.3203125 C47.5488281,43.3398438 47.5830078,43.3544922 47.6123047,43.3642578 C47.6416016,43.3740234 47.6660156,43.3886719 47.6855469,43.4082031 C47.7636719,43.4277344 47.8417969,43.4619141 47.9199219,43.5107422 C47.9980469,43.5595703 48.0664062,43.6035156 48.125,43.6425781 L48.125,45.3125 L44.3457031,45.3125 C44.6191406,45.5273438 44.8193359,45.7910156 44.9462891,46.1035156 C45.0732422,46.4160156 45.1953125,46.7773438 45.3125,47.1875 L48.4179688,47.1875 Z M41.8554688,51.875 C42.2851562,51.875 42.65625,51.7236328 42.96875,51.4208984 C43.28125,51.1181641 43.4375,50.7421875 43.4375,50.2929688 L43.4375,47.9199219 C43.4375,47.4511719 43.1738281,47.0703125 42.6464844,46.7773438 C42.1191406,46.484375 41.8554688,46.3378906 41.8554688,46.3378906 L35.9667969,43.0859375 C37.0605469,42.2070312 37.7978516,41.0546875 38.1787109,39.6289062 C38.5595703,38.203125 38.75,37.0117188 38.75,36.0546875 L38.75,32.0996094 C38.75,31.4355469 38.5498047,30.7763672 38.1494141,30.1220703 C37.7490234,29.4677734 37.2216797,28.8769531 36.5673828,28.3496094 C35.9130859,27.8222656 35.1660156,27.3925781 34.3261719,27.0605469 C33.4863281,26.7285156 32.6269531,26.5625 31.7480469,26.5625 C30.8886719,26.5625 30.0341797,26.7285156 29.1845703,27.0605469 C28.3349609,27.3925781 27.578125,27.8222656 26.9140625,28.3496094 C26.25,28.8769531 25.7128906,29.4677734 25.3027344,30.1220703 C24.8925781,30.7763672 24.6875,31.4355469 24.6875,32.0996094 L24.6875,36.0546875 C24.6875,36.9140625 24.9023438,38.0761719 25.3320312,39.5410156 C25.7617188,41.0058594 26.5332031,42.1777344 27.6464844,43.0566406 L21.5820312,46.3378906 C21.5820312,46.3378906 21.3183594,46.4941406 20.7910156,46.8066406 C20.2636719,47.1191406 20,47.4902344 20,47.9199219 L20,50.2929688 C20,50.7421875 20.15625,51.1181641 20.46875,51.4208984 C20.78125,51.7236328 21.1523438,51.875 21.5820312,51.875 L41.8554688,51.875 Z M41.5625,50 L21.875,50 L21.875,48.3300781 C21.9335938,48.2910156 22.0068359,48.2421875 22.0947266,48.1835938 C22.1826172,48.125 22.265625,48.0859375 22.34375,48.0664062 C22.3632812,48.046875 22.3828125,48.0322266 22.4023438,48.0224609 C22.421875,48.0126953 22.4414062,48.0078125 22.4609375,48.0078125 L28.5253906,44.6972656 C28.7988281,44.5605469 29.0234375,44.3603516 29.1992188,44.0966797 C29.375,43.8330078 29.4726562,43.5449219 29.4921875,43.2324219 C29.53125,42.9199219 29.4873047,42.6171875 29.3603516,42.3242188 C29.2333984,42.03125 29.0527344,41.7871094 28.8183594,41.5917969 C28.0175781,40.9667969 27.4414062,40.0732422 27.0898438,38.9111328 C26.7382812,37.7490234 26.5625,36.796875 26.5625,36.0546875 L26.5625,32.0996094 C26.5625,31.4160156 27.0947266,30.6347656 28.1591797,29.7558594 C29.2236328,28.8769531 30.4199219,28.4375 31.7480469,28.4375 C33.1152344,28.4375 34.3115234,28.8769531 35.3369141,29.7558594 C36.3623047,30.6347656 36.875,31.4160156 36.875,32.0996094 L36.875,36.0546875 C36.875,36.796875 36.7285156,37.7490234 36.4355469,38.9111328 C36.1425781,40.0732422 35.5957031,40.9667969 34.7949219,41.5917969 C34.5410156,41.7871094 34.3505859,42.03125 34.2236328,42.3242188 C34.0966797,42.6171875 34.0527344,42.9199219 34.0917969,43.2324219 C34.1113281,43.5449219 34.2089844,43.8330078 34.3847656,44.0966797 C34.5605469,44.3603516 34.7851562,44.5703125 35.0585938,44.7265625 L40.9472656,47.9785156 C40.9863281,47.9980469 41.0205078,48.0175781 41.0498047,48.0371094 C41.0791016,48.0566406 41.1035156,48.0664062 41.1230469,48.0664062 L41.3574219,48.1835938 L41.3574219,48.1835938 C41.4355469,48.2226562 41.5039062,48.2714844 41.5625,48.3300781 L41.5625,50 Z" id="î€"></path>
                </g>
            </g>
        </g>
    </g>
</svg>