<?xml version="1.0" encoding="UTF-8"?>
<svg width="30px" height="31px" viewBox="0 0 30 31" version="1.1" xmlns="http://www.w3.org/2000/svg" xmlns:xlink="http://www.w3.org/1999/xlink">
    <title>7F14E528-412F-432E-BF42-FEDF74234EF2@3x</title>
    <g id="10-Add-ons" stroke="none" stroke-width="1" fill="none" fill-rule="evenodd">
        <g transform="translate(-108.000000, -443.000000)" fill="#4FBC7B" fill-rule="nonzero" id="Group-8">
            <g transform="translate(88.000000, 422.000000)" id="Group-7">
                <path d="M34.8535156,51.9042969 C35.0097656,51.9042969 35.1904297,51.8945312 35.3955078,51.875 C35.6005859,51.8554687 35.8007812,51.8164062 35.9960938,51.7578125 L48.3886719,48.3886719 C48.8378906,48.2714844 49.21875,48.0126953 49.53125,47.6123047 C49.84375,47.2119141 50,46.7773437 50,46.3085937 L50,23.515625 C50,22.96875 49.7851562,22.5292969 49.3554688,22.1972656 C48.9257812,21.8652344 48.4375,21.7773437 47.890625,21.9335937 L35.4980469,25.2734375 C35.3417969,25.3125 35.1220703,25.3320312 34.8388672,25.3320312 C34.5556641,25.3320312 34.3359375,25.3125 34.1796875,25.2734375 L22.109375,21.9335937 C21.5625,21.7773437 21.0742188,21.8652344 20.6445312,22.1972656 C20.2148438,22.5292969 20,22.96875 20,23.515625 L20,46.3085937 C20,46.7773437 20.15625,47.2119141 20.46875,47.6123047 C20.78125,48.0126953 21.1621094,48.28125 21.6113281,48.4179687 L33.6816406,51.7578125 C33.8378906,51.796875 34.0185547,51.8310547 34.2236328,51.8603516 C34.4287109,51.8896484 34.6386719,51.9042969 34.8535156,51.9042969 Z M34.0625,49.9121094 L22.0800781,46.6015625 C22.0410156,46.5820312 21.9970703,46.5429687 21.9482422,46.484375 C21.8994141,46.4257812 21.875,46.3671875 21.875,46.3085937 L21.875,23.8085937 L33.6816406,27.0898437 C33.7402344,27.0898437 33.8037109,27.0996094 33.8720703,27.1191406 C33.9404297,27.1386719 34.0039062,27.1484375 34.0625,27.1484375 L34.0625,49.9121094 Z M35.9375,49.8242187 L35.9375,27.0898437 L35.9960938,27.0898437 L35.9960938,27.0898437 L48.125,23.8085937 L48.125,46.3085937 C48.125,46.3671875 48.0957031,46.4257812 48.0371094,46.484375 C47.9785156,46.5429687 47.9296875,46.5820312 47.890625,46.6015625 L35.9375,49.8242187 Z M38.9404297,32.5976562 C38.9892578,32.5976562 39.0332031,32.5878906 39.0722656,32.5683594 L45.6347656,30.7226562 C45.8691406,30.6445312 46.0498047,30.4931641 46.1767578,30.2685547 C46.3037109,30.0439453 46.3378906,29.8144531 46.2792969,29.5800781 C46.2011719,29.3261719 46.0498047,29.1357422 45.8251953,29.0087891 C45.6005859,28.8818359 45.3613281,28.8476562 45.1074219,28.90625 L38.5449219,30.7519531 C38.3105469,30.8300781 38.1298828,30.9814453 38.0029297,31.2060547 C37.8759766,31.4306641 37.8417969,31.6699219 37.9003906,31.9238281 C37.9589844,32.1386719 38.0761719,32.3046875 38.2519531,32.421875 C38.4277344,32.5390625 38.6132812,32.5976562 38.8085938,32.5976562 L38.9404297,32.5976562 L38.9404297,32.5976562 Z M31.3085938,32.5976562 C31.5039062,32.5976562 31.6894531,32.5390625 31.8652344,32.421875 C32.0410156,32.3046875 32.1582031,32.1386719 32.2167969,31.9238281 C32.2753906,31.6699219 32.2412109,31.4306641 32.1142578,31.2060547 C31.9873047,30.9814453 31.8066406,30.8300781 31.5722656,30.7519531 L25.0097656,28.90625 C24.7558594,28.8476562 24.5166016,28.8818359 24.2919922,29.0087891 C24.0673828,29.1357422 23.9160156,29.3261719 23.8378906,29.5800781 C23.7792969,29.8144531 23.8134766,30.0439453 23.9404297,30.2685547 C24.0673828,30.4931641 24.2480469,30.6445312 24.4824219,30.7226562 L31.0449219,32.5683594 C31.0839844,32.5878906 31.1279297,32.5976562 31.1767578,32.5976562 L31.3085938,32.5976562 L31.3085938,32.5976562 Z M38.9404297,38.2226562 C38.9892578,38.2226562 39.0332031,38.2128906 39.0722656,38.1933594 L45.6347656,36.3476562 C45.8691406,36.2695312 46.0498047,36.1181641 46.1767578,35.8935547 C46.3037109,35.6689453 46.3378906,35.4394531 46.2792969,35.2050781 C46.2011719,34.9511719 46.0498047,34.7607422 45.8251953,34.6337891 C45.6005859,34.5068359 45.3613281,34.4726562 45.1074219,34.53125 L38.5449219,36.3769531 C38.3105469,36.4550781 38.1298828,36.6064453 38.0029297,36.8310547 C37.8759766,37.0556641 37.8417969,37.2949219 37.9003906,37.5488281 C37.9589844,37.7636719 38.0761719,37.9296875 38.2519531,38.046875 C38.4277344,38.1640625 38.6132812,38.2226562 38.8085938,38.2226562 L38.9404297,38.2226562 L38.9404297,38.2226562 Z M31.3085938,38.2226562 C31.5039062,38.2226562 31.6894531,38.1640625 31.8652344,38.046875 C32.0410156,37.9296875 32.1582031,37.7636719 32.2167969,37.5488281 C32.2753906,37.2949219 32.2412109,37.0556641 32.1142578,36.8310547 C31.9873047,36.6064453 31.8066406,36.4550781 31.5722656,36.3769531 L25.0097656,34.53125 C24.7558594,34.4726562 24.5166016,34.5068359 24.2919922,34.6337891 C24.0673828,34.7607422 23.9160156,34.9511719 23.8378906,35.2050781 C23.7792969,35.4394531 23.8134766,35.6689453 23.9404297,35.8935547 C24.0673828,36.1181641 24.2480469,36.2695312 24.4824219,36.3476562 L31.0449219,38.1933594 C31.0839844,38.2128906 31.1279297,38.2226562 31.1767578,38.2226562 L31.3085938,38.2226562 L31.3085938,38.2226562 Z M38.9404297,43.8476562 C38.9892578,43.8476562 39.0332031,43.8378906 39.0722656,43.8183594 L45.6347656,41.9726562 C45.8691406,41.8945312 46.0498047,41.7431641 46.1767578,41.5185547 C46.3037109,41.2939453 46.3378906,41.0644531 46.2792969,40.8300781 C46.2011719,40.5761719 46.0498047,40.3857422 45.8251953,40.2587891 C45.6005859,40.1318359 45.3613281,40.0976562 45.1074219,40.15625 L38.5449219,42.0019531 C38.3105469,42.0800781 38.1298828,42.2314453 38.0029297,42.4560547 C37.8759766,42.6806641 37.8417969,42.9199219 37.9003906,43.1738281 C37.9589844,43.3886719 38.0761719,43.5546875 38.2519531,43.671875 C38.4277344,43.7890625 38.6132812,43.8476562 38.8085938,43.8476562 L38.9404297,43.8476562 L38.9404297,43.8476562 Z M31.3085938,43.8476562 C31.5039062,43.8476562 31.6894531,43.7890625 31.8652344,43.671875 C32.0410156,43.5546875 32.1582031,43.3886719 32.2167969,43.1738281 C32.2753906,42.9199219 32.2412109,42.6806641 32.1142578,42.4560547 C31.9873047,42.2314453 31.8066406,42.0800781 31.5722656,42.0019531 L25.0097656,40.15625 C24.7558594,40.0976562 24.5166016,40.1318359 24.2919922,40.2587891 C24.0673828,40.3857422 23.9160156,40.5761719 23.8378906,40.8300781 C23.7792969,41.0644531 23.8134766,41.2939453 23.9404297,41.5185547 C24.0673828,41.7431641 24.2480469,41.8945312 24.4824219,41.9726562 L31.0449219,43.8183594 C31.0839844,43.8378906 31.1279297,43.8476562 31.1767578,43.8476562 L31.3085938,43.8476562 L31.3085938,43.8476562 Z" id="îŒ"></path>
            </g>
        </g>
    </g>
</svg>