<?xml version="1.0" encoding="UTF-8"?>
<svg width="24px" height="24px" viewBox="0 0 24 24" version="1.1" xmlns="http://www.w3.org/2000/svg" xmlns:xlink="http://www.w3.org/1999/xlink">
    <title>35F00452-86FB-40F5-8D97-1D091AAA8CB8@1x</title>
    <g id="10-Add-ons" stroke="none" stroke-width="1" fill="none" fill-rule="evenodd">
        <g transform="translate(-274.000000, -1427.000000)">
            <rect fill="#FFFFFF" x="0" y="0" width="656" height="1590"></rect>
            <rect id="Email-BG" fill="#F4F4F8" x="0" y="0" width="656" height="1590"></rect>
            <g id="Footer/one" transform="translate(40.000000, 218.000000)">
                <g transform="translate(119.000000, 1166.000000)" id="Group-4">
                    <g transform="translate(115.000000, 43.000000)" id="Facebook">
                        <rect id="Rectangle" x="0" y="0" width="24" height="24"></rect>
                        <path d="M18.7890625,19 C19.1276042,19 19.4140625,18.8697917 19.6484375,18.609375 C19.8828125,18.3489583 20,18.0494792 20,17.7109375 L20,17.7109375 L20,5.171875 C20,4.83333333 19.8828125,4.55338542 19.6484375,4.33203125 C19.4140625,4.11067708 19.1276042,4 18.7890625,4 L18.7890625,4 L6.2890625,4 C5.92447917,4 5.61848958,4.11067708 5.37109375,4.33203125 C5.12369792,4.55338542 5,4.83333333 5,5.171875 L5,5.171875 L5,17.7109375 C5,18.0494792 5.13020833,18.3489583 5.390625,18.609375 C5.65104167,18.8697917 5.95052083,19 6.2890625,19 L6.2890625,19 L18.7890625,19 Z M8.6328125,8.8046875 C8.29427083,8.8046875 8.02083333,8.70052083 7.8125,8.4921875 C7.60416667,8.2578125 7.5,7.984375 7.5,7.671875 C7.5,7.33333333 7.61067708,7.05338542 7.83203125,6.83203125 C8.05338542,6.61067708 8.33333333,6.5 8.671875,6.5 C9.01041667,6.5 9.28385417,6.61067708 9.4921875,6.83203125 C9.70052083,7.05338542 9.8046875,7.33333333 9.8046875,7.671875 C9.8046875,7.984375 9.69401042,8.25130208 9.47265625,8.47265625 C9.25130208,8.69401042 8.97135417,8.8046875 8.6328125,8.8046875 Z M13.0859375,16.5 L10.9375,16.5 L10.9375,9.8203125 L13.0859375,9.8203125 L13.0859375,10.7578125 C13.6067708,10.0286458 14.2578125,9.6640625 15.0390625,9.6640625 C15.7682292,9.6640625 16.3606771,9.91145833 16.8164062,10.40625 C17.2721354,10.9010417 17.5,11.6302083 17.5,12.59375 L17.5,12.59375 L17.5,16.5 L15.3515625,16.5 L15.3515625,12.828125 C15.3515625,11.8645833 14.9869792,11.3828125 14.2578125,11.3828125 C13.7369792,11.3828125 13.3723958,11.6432292 13.1640625,12.1640625 C13.1119792,12.2682292 13.0859375,12.4505208 13.0859375,12.7109375 L13.0859375,12.7109375 L13.0859375,16.5 Z M9.6484375,16.5 L7.5,16.5 L7.5,9.8203125 L9.6484375,9.8203125 L9.6484375,16.5 Z" id="LinkedIn" fill="#989CAC" fill-rule="nonzero"></path>
                    </g>
                </g>
            </g>
        </g>
    </g>
</svg>