<?xml version="1.0" encoding="UTF-8"?>
<svg width="24px" height="24px" viewBox="0 0 24 24" version="1.1" xmlns="http://www.w3.org/2000/svg" xmlns:xlink="http://www.w3.org/1999/xlink">
    <title>C1D721C4-7A32-44A1-A671-5E100FE4EEFB@1x</title>
    <g id="10-Add-ons" stroke="none" stroke-width="1" fill="none" fill-rule="evenodd">
        <g transform="translate(-358.000000, -1427.000000)">
            <rect fill="#FFFFFF" x="0" y="0" width="656" height="1590"></rect>
            <rect id="Email-BG" fill="#F4F4F8" x="0" y="0" width="656" height="1590"></rect>
            <g id="Footer/one" transform="translate(40.000000, 218.000000)">
                <g transform="translate(119.000000, 1166.000000)" id="Group-4">
                    <g transform="translate(115.000000, 43.000000)">
                        <g id="Google" transform="translate(84.000000, 0.000000)">
                            <rect id="Rectangle" x="0" y="0" width="24" height="24"></rect>
                            <path d="M14.3515625,6.17382812 C14.734375,6.17382812 15.101237,6.23307292 15.4521484,6.3515625 C15.8030599,6.47005208 16.1289062,6.63867188 16.4296875,6.85742188 C16.59375,6.81184896 16.7532552,6.75716146 16.9082031,6.69335938 C17.063151,6.62955729 17.2089844,6.55208333 17.3457031,6.4609375 C17.4186198,6.42447917 17.4915365,6.39713542 17.5644531,6.37890625 C17.6373698,6.36067708 17.7102865,6.3515625 17.7832031,6.3515625 C17.8834635,6.3515625 17.9814453,6.36751302 18.0771484,6.39941406 C18.1728516,6.4313151 18.2617188,6.47916667 18.34375,6.54296875 C18.4804688,6.65234375 18.5738932,6.79134115 18.6240234,6.95996094 C18.6741536,7.12858073 18.6764323,7.29947917 18.6308594,7.47265625 C18.7402344,7.54557292 18.8291016,7.64583333 18.8974609,7.7734375 C18.9658203,7.90104167 19,8.03776042 19,8.18359375 C19,8.28385417 18.9840495,8.37955729 18.9521484,8.47070312 C18.9202474,8.56184896 18.8769531,8.64388021 18.8222656,8.71679688 C18.6764323,8.93554688 18.5123698,9.140625 18.3300781,9.33203125 C18.1477865,9.5234375 17.9563802,9.70572917 17.7558594,9.87890625 C17.7376302,10.8268229 17.5439453,11.7633464 17.1748047,12.6884766 C16.8056641,13.6136068 16.2770182,14.4384766 15.5888672,15.1630859 C14.9007161,15.8876953 14.0621745,16.4710286 13.0732422,16.9130859 C12.0843099,17.3551432 10.9700521,17.5761719 9.73046875,17.5761719 C9.34765625,17.5761719 8.9671224,17.5511068 8.58886719,17.5009766 C8.21061198,17.4508464 7.83919271,17.3733724 7.47460937,17.2685547 C7.11002604,17.163737 6.75455729,17.0361328 6.40820312,16.8857422 C6.06184896,16.7353516 5.72916667,16.5553385 5.41015625,16.3457031 C5.23697917,16.2454427 5.11621094,16.0973307 5.04785156,15.9013672 C4.97949219,15.7054036 4.97721354,15.5117188 5.04101562,15.3203125 C5.10481771,15.1471354 5.21419271,15.0058594 5.36914062,14.8964844 C5.52408854,14.7871094 5.69270833,14.7324219 5.875,14.7324219 L5.875,14.7324219 L5.92285156,14.7324219 C5.93652344,14.7324219 5.95247396,14.7369792 5.97070312,14.7460938 C6.05273437,14.7552083 6.13476562,14.7620443 6.21679687,14.7666016 C6.29882812,14.7711589 6.38541667,14.7734375 6.4765625,14.7734375 C6.63151042,14.7734375 6.78873698,14.7643229 6.94824219,14.7460938 C7.1077474,14.7278646 7.26497396,14.7005208 7.41992187,14.6640625 C7.19205729,14.4726562 6.99153646,14.2516276 6.81835937,14.0009766 C6.64518229,13.7503255 6.50846354,13.4746094 6.40820312,13.1738281 C6.38997396,13.1009115 6.37858073,13.0257161 6.37402344,12.9482422 C6.36946615,12.8707682 6.37630208,12.7955729 6.39453125,12.7226562 C6.11197917,12.421875 5.89095052,12.0777995 5.73144531,11.6904297 C5.5719401,11.3030599 5.4921875,10.8951823 5.4921875,10.4667969 L5.4921875,10.4667969 L5.4921875,10.4394531 C5.4921875,10.3300781 5.51041667,10.2252604 5.546875,10.125 C5.58333333,10.0247396 5.63802083,9.93359375 5.7109375,9.8515625 C5.64713542,9.67838542 5.59700521,9.49609375 5.56054687,9.3046875 C5.52408854,9.11328125 5.50585937,8.91731771 5.50585937,8.71679688 C5.50585937,8.42513021 5.546875,8.13574219 5.62890625,7.84863281 C5.7109375,7.56152344 5.82486979,7.29036458 5.97070312,7.03515625 C6.04361979,6.91666667 6.14160156,6.82096354 6.26464844,6.74804688 C6.38769531,6.67513021 6.51757812,6.63411458 6.65429687,6.625 C6.66341146,6.61588542 6.67480469,6.61132812 6.68847656,6.61132812 L6.68847656,6.61132812 L6.72265625,6.61132812 C6.85026042,6.61132812 6.97330729,6.63867188 7.09179687,6.69335938 C7.21028646,6.74804688 7.31054687,6.82552083 7.39257812,6.92578125 C7.84830729,7.47265625 8.38606771,7.92838542 9.00585938,8.29296875 C9.62565104,8.65755208 10.2910156,8.90820312 11.0019531,9.04492188 C11.0566406,8.64388021 11.1819661,8.26790365 11.3779297,7.91699219 C11.5738932,7.56608073 11.819987,7.26074219 12.1162109,7.00097656 C12.4124349,6.74121094 12.7519531,6.53841146 13.1347656,6.39257812 C13.5175781,6.24674479 13.9231771,6.17382812 14.3515625,6.17382812 Z" id="Twitter" fill="#989CAC"></path>
                        </g>
                    </g>
                </g>
            </g>
        </g>
    </g>
</svg>