<?xml version="1.0" encoding="UTF-8"?>
<svg width="180px" height="29px" viewBox="0 0 180 29" version="1.1" xmlns="http://www.w3.org/2000/svg" xmlns:xlink="http://www.w3.org/1999/xlink">
    <title>3893EA19-17F6-49FF-A83E-4EE4398EAA83@3x</title>
    <g id="10-Add-ons" stroke="none" stroke-width="1" fill="none" fill-rule="evenodd">
        <g transform="translate(-239.000000, -1384.000000)" id="Footer/one">
            <g transform="translate(40.000000, 218.000000)">
                <g transform="translate(119.000000, 1166.000000)" id="growthplug-logo">
                    <g transform="translate(80.000000, 0.000000)">
                        <path d="M48.5432839,9.32243841 C46.6988974,9.32243841 45.3663905,9.83784482 44.5457231,10.8686731 C43.7250557,11.8995014 43.3147281,13.3094148 43.3147281,15.0984556 C43.3147281,15.9674183 43.4162525,16.7554363 43.6193042,17.4625334 C43.8223559,18.1696305 44.1269289,18.7787472 44.5330324,19.2899017 C44.9391358,19.8010562 45.4467575,20.197195 46.0559127,20.47833 C46.6650679,20.759465 47.3757383,20.9000304 48.1879452,20.9000304 C48.6278906,20.9000304 49.0043767,20.8915113 49.3174148,20.8744728 C49.6304528,20.8574343 49.9054146,20.8233578 50.1423083,20.7722424 L50.1423083,14.6128612 L54.1017971,14.6128612 L54.1017971,23.3791174 C53.6280098,23.5665407 52.8665772,23.7667399 51.8174766,23.9797209 C50.7683761,24.192702 49.4739407,24.2991909 47.9341318,24.2991909 C46.6142956,24.2991909 45.4171544,24.0947322 44.3426724,23.6858086 C43.2681903,23.276885 42.3502411,22.680547 41.5887971,21.8967767 C40.8273531,21.1130064 40.239358,20.1503465 39.824794,19.0087681 C39.4102301,17.8671897 39.2029512,16.5637652 39.2029512,15.0984556 C39.2029512,13.6161075 39.431381,12.3041639 39.8882474,11.1625855 C40.3451138,10.0210071 40.9711805,9.0540876 41.7664665,8.26179809 C42.5617524,7.46950859 43.4966224,6.86891104 44.5711044,6.45998742 C45.6455865,6.05106381 46.7919655,5.84660507 48.0102758,5.84660507 C48.8394037,5.84660507 49.5881457,5.90197931 50.2565243,6.01272946 C50.9249029,6.1234796 51.5002075,6.25126631 51.9824553,6.39609343 C52.4647032,6.54092054 52.8623402,6.69000504 53.1753783,6.84335139 C53.4884164,6.99669775 53.7126159,7.11596535 53.8479838,7.20115777 L52.7058235,10.3958575 C52.1643522,10.1062033 51.5425157,9.85488944 50.8402951,9.64190839 C50.1380745,9.42892734 49.3724118,9.32243841 48.5432839,9.32243841 Z M65.5741623,13.8972485 C65.2357428,13.8120561 64.8381058,13.7226054 64.3812394,13.6288937 C63.924373,13.535182 63.433672,13.4883269 62.9091217,13.4883269 C62.672228,13.4883269 62.3888059,13.5096247 62.0588469,13.5522209 C61.7288878,13.5948171 61.4793071,13.6416722 61.3100974,13.6927877 L61.3100974,23.9669421 L57.5282779,23.9669421 L57.5282779,11.2392583 C58.205117,11.0007195 59.0046211,10.774963 59.9268144,10.5619819 C60.8490077,10.3490009 61.8769416,10.2425119 63.0106471,10.2425119 C63.2136988,10.2425119 63.4590493,10.2552906 63.7467059,10.2808483 C64.0343625,10.3064061 64.3220148,10.3404825 64.6096714,10.3830787 C64.897328,10.4256749 65.1849803,10.4767896 65.4726369,10.5364243 C65.7602936,10.596059 66.005644,10.6684715 66.2086958,10.7536639 L65.5741623,13.8972485 Z M80.2191948,17.2197362 C80.2191948,18.2761222 80.0669083,19.2430417 79.7623307,20.1205236 C79.4577531,20.9980056 79.0178143,21.7476876 78.4425011,22.3695923 C77.8671879,22.9914969 77.1776684,23.4728269 76.373922,23.8135966 C75.5701756,24.1543662 74.669147,24.3247485 73.6708094,24.3247485 C72.6893927,24.3247485 71.7968246,24.1543662 70.9930781,23.8135966 C70.1893317,23.4728269 69.4998122,22.9914969 68.924499,22.3695923 C68.3491858,21.7476876 67.9007866,20.9980056 67.5792881,20.1205236 C67.2577895,19.2430417 67.0970426,18.2761222 67.0970426,17.2197362 C67.0970426,16.1633502 67.2620197,15.2006903 67.5919787,14.3317276 C67.9219378,13.462765 68.3787973,12.721602 68.962571,12.1082166 C69.5463447,11.4948312 70.2400944,11.0177608 71.0438408,10.6769911 C71.8475872,10.3362214 72.7232347,10.1658392 73.6708094,10.1658392 C74.6353051,10.1658392 75.5194129,10.3362214 76.3231593,10.6769911 C77.1269057,11.0177608 77.8164252,11.4948312 78.3917384,12.1082166 C78.9670516,12.721602 79.4154508,13.462765 79.7369494,14.3317276 C80.0584479,15.2006903 80.2191948,16.1633502 80.2191948,17.2197362 Z M76.3612313,17.2197362 C76.3612313,16.0440808 76.1285714,15.119757 75.6632445,14.4467368 C75.1979176,13.7737167 74.5337792,13.4372117 73.6708094,13.4372117 C72.8078396,13.4372117 72.139471,13.7737167 71.6656836,14.4467368 C71.1918963,15.119757 70.9550061,16.0440808 70.9550061,17.2197362 C70.9550061,18.3953916 71.1918963,19.3282346 71.6656836,20.0182932 C72.139471,20.7083518 72.8078396,21.053376 73.6708094,21.053376 C74.5337792,21.053376 75.1979176,20.7083518 75.6632445,20.0182932 C76.1285714,19.3282346 76.3612313,18.3953916 76.3612313,17.2197362 Z M90.6509251,16.2485475 C90.3125055,17.5434723 89.9529402,18.8298585 89.5722182,20.1077448 C89.1914962,21.3856311 88.789629,22.6720174 88.3666046,23.9669421 L85.4223693,23.9669421 C85.1177917,23.2513258 84.7878376,22.3994144 84.4324971,21.4111823 C84.0771565,20.4229503 83.7091308,19.3452823 83.3284088,18.1781462 C82.9476868,17.01101 82.5585102,15.7757385 82.1608672,14.4722944 C81.7632243,13.1688504 81.3782778,11.8526473 81.0060163,10.5236455 L84.9908865,10.5236455 C85.1262543,11.1370309 85.2743107,11.8057814 85.4350599,12.529917 C85.5958092,13.2540525 85.7650165,13.999475 85.9426867,14.7662068 C86.120357,15.5329386 86.3064849,16.3039184 86.5010762,17.0791694 C86.6956674,17.8544205 86.8944859,18.599843 87.0975376,19.3154593 C87.3175103,18.565766 87.5332496,17.7990457 87.7447618,17.0152755 C87.956274,16.2315052 88.1593227,15.4605254 88.3539139,14.7023128 C88.5485051,13.9441003 88.7346331,13.2114565 88.9123034,12.5043594 C89.0899736,11.7972623 89.2464903,11.1370309 89.3818581,10.5236455 L92.1230427,10.5236455 C92.2584105,11.1370309 92.4106971,11.7972623 92.5799068,12.5043594 C92.7491166,13.2114565 92.9267842,13.9441003 93.1129149,14.7023128 C93.2990457,15.4605254 93.493634,16.2315052 93.6966857,17.0152755 C93.8997375,17.7990457 94.1112465,18.565766 94.3312192,19.3154593 C94.5342709,18.599843 94.7373196,17.8544205 94.9403713,17.0791694 C95.1434231,16.3039184 95.3337812,15.5329386 95.5114515,14.7662068 C95.6891217,13.999475 95.858329,13.2540525 96.0190782,12.529917 C96.1798275,11.8057814 96.3278839,11.1370309 96.4632517,10.5236455 L100.397359,10.5236455 C100.025098,11.8526473 99.6401512,13.1688504 99.2425083,14.4722944 C98.8448653,15.7757385 98.4556887,17.01101 98.0749667,18.1781462 C97.6942447,19.3452823 97.3219888,20.4229503 96.9581878,21.4111823 C96.5943868,22.3994144 96.2602025,23.2513258 95.9556249,23.9669421 L93.0113896,23.9669421 C92.5883652,22.6720174 92.1738074,21.3856311 91.767704,20.1077448 C91.3616005,18.8298585 90.9893446,17.5434723 90.6509251,16.2485475 Z M102.30096,7.17560017 L106.082779,6.56221782 L106.082779,10.5236455 L110.626039,10.5236455 L110.626039,13.6927877 L106.082779,13.6927877 L106.082779,18.4209434 C106.082779,19.2217521 106.222375,19.8606857 106.501571,20.3377632 C106.780767,20.8148408 107.343381,21.053376 108.18943,21.053376 C108.595534,21.053376 109.014322,21.0150399 109.445806,20.9383668 C109.877291,20.8616936 110.270698,20.7552047 110.626039,20.6188968 L111.159047,23.5835782 C110.70218,23.7710015 110.194559,23.9328647 109.636167,24.0691725 C109.077774,24.2054804 108.392485,24.2736333 107.580278,24.2736333 C106.548098,24.2736333 105.693602,24.1330679 105.016763,23.851933 C104.339924,23.570798 103.798461,23.1789187 103.392357,22.6762834 C102.986254,22.1736482 102.702832,21.5645315 102.542082,20.8489152 C102.381333,20.1332988 102.30096,19.3410212 102.30096,18.4720585 L102.30096,7.17560017 Z M113.697181,23.9669421 L113.697181,4.74762835 L117.479,4.13424599 L117.479,10.5747607 C117.732815,10.4895683 118.058539,10.4086367 118.456182,10.3319635 C118.853825,10.2552904 119.238771,10.2169543 119.611033,10.2169543 C120.693975,10.2169543 121.595004,10.3660388 122.314145,10.6642123 C123.033287,10.9623858 123.608591,11.3840819 124.040076,11.9293134 C124.471561,12.4745449 124.776134,13.1219976 124.953805,13.8716909 C125.131475,14.6213842 125.220309,15.4562574 125.220309,16.3763355 L125.220309,23.9669421 L121.438489,23.9669421 L121.438489,16.8363723 C121.438489,15.6096014 121.281972,14.7406518 120.968934,14.2294973 C120.655896,13.7183427 120.076361,13.4627693 119.230313,13.4627693 C118.891893,13.4627693 118.57463,13.4925862 118.278512,13.5522209 C117.982395,13.6118556 117.715894,13.675749 117.479,13.7439029 L117.479,23.9669421 L113.697181,23.9669421 Z M134.179921,6.05106585 C136.802673,6.05106585 138.816239,6.51535758 140.22068,7.44395495 C141.625121,8.37255233 142.327331,9.89321421 142.327331,12.0059862 C142.327331,14.1357967 141.616661,15.6734968 140.195298,16.6191327 C138.773936,17.5647685 136.74345,18.0375794 134.103777,18.0375794 L132.860092,18.0375794 L132.860092,23.9669421 L128.900603,23.9669421 L128.900603,6.51110262 C129.763573,6.34071778 130.677292,6.22145018 131.641787,6.15329624 C132.606283,6.08514231 133.452319,6.05106585 134.179921,6.05106585 Z M134.433735,9.4502264 C134.146078,9.4502264 133.862656,9.45874552 133.58346,9.475784 C133.304264,9.49282249 133.063143,9.50986072 132.860092,9.5268992 L132.860092,14.6384188 L134.103777,14.6384188 C135.474376,14.6384188 136.50654,14.4509983 137.200301,14.0761517 C137.894061,13.701305 138.240935,13.0027377 138.240935,11.9804286 C138.240935,11.4863126 138.152102,11.0773951 137.974431,10.7536639 C137.796761,10.4299327 137.54295,10.1700997 137.212991,9.97415717 C136.883032,9.7782146 136.481165,9.64190877 136.007378,9.5652356 C135.53359,9.48856242 135.009048,9.4502264 134.433735,9.4502264 Z M150.322453,24.2225181 C149.222589,24.2054796 148.330021,24.086212 147.644721,23.8647118 C146.959422,23.6432115 146.417959,23.3322638 146.020316,22.9318594 C145.622673,22.5314551 145.351941,22.0458655 145.208113,21.4750763 C145.064285,20.9042871 144.992372,20.261094 144.992372,19.5454777 L144.992372,4.74762835 L148.774191,4.13424599 L148.774191,18.7787497 C148.774191,19.1195194 148.799572,19.4262075 148.850335,19.6988233 C148.901098,19.971439 148.998392,20.2014551 149.14222,20.3888784 C149.286049,20.5763017 149.493328,20.7296458 149.764063,20.8489152 C150.034799,20.9681846 150.398594,21.0448566 150.855461,21.0789336 L150.322453,24.2225181 Z M164.409096,23.5069054 C163.766099,23.6943287 162.936983,23.8689705 161.921725,24.0308361 C160.906466,24.1927017 159.84046,24.2736333 158.723676,24.2736333 C157.58997,24.2736333 156.64664,24.1202893 155.893657,23.8135966 C155.140673,23.5069038 154.544218,23.0766886 154.104272,22.5229379 C153.664327,21.9691871 153.351293,21.3089558 153.165163,20.542224 C152.979032,19.7754922 152.885968,18.9320999 152.885968,18.0120218 L152.885968,10.5236455 L156.667787,10.5236455 L156.667787,17.551985 C156.667787,18.7787559 156.828534,19.6647437 157.150033,20.2099752 C157.471531,20.7552067 158.072217,21.0278184 158.952108,21.0278184 C159.222844,21.0278184 159.510496,21.0150397 159.815073,20.989482 C160.119651,20.9639242 160.390383,20.9341073 160.627276,20.9000304 L160.627276,10.5236455 L164.409096,10.5236455 L164.409096,23.5069054 Z M171.185913,16.8108147 C171.185913,18.9406252 172.04041,20.0055144 173.749428,20.0055144 C174.138611,20.0055144 174.502406,19.9543998 174.840826,19.8521688 C175.179246,19.7499379 175.466898,19.6306703 175.703792,19.4943625 L175.703792,13.4116541 C175.517661,13.3775771 175.297691,13.3477602 175.043877,13.3222025 C174.790062,13.2966448 174.493949,13.2838661 174.15553,13.2838661 C173.157192,13.2838661 172.41268,13.6161116 171.921972,14.2806125 C171.431264,14.9451133 171.185913,15.7885056 171.185913,16.8108147 Z M179.485611,22.2801407 C179.485611,24.4781051 178.931457,26.1095155 177.823133,27.1744207 C176.714809,28.239326 175.001586,28.7717706 172.683412,28.7717706 C171.871205,28.7717706 171.059011,28.6993581 170.246804,28.554531 C169.434597,28.4097039 168.681625,28.2180238 167.987865,27.9794851 L168.647779,24.7847853 C169.240014,25.0233241 169.86185,25.2107446 170.513308,25.3470524 C171.164765,25.4833603 171.905047,25.5515132 172.734175,25.5515132 C173.817117,25.5515132 174.58278,25.312978 175.031186,24.8359005 C175.479592,24.3588229 175.703792,23.7454467 175.703792,22.9957534 L175.703792,22.5101591 C175.297688,22.6975824 174.8789,22.8381478 174.447415,22.9318594 C174.01593,23.0255711 173.54638,23.0724262 173.038751,23.0724262 C171.194364,23.0724262 169.781484,22.5229433 168.800067,21.4239611 C167.818651,20.3249789 167.32795,18.7872788 167.32795,16.8108147 C167.32795,15.8225826 167.480236,14.9238161 167.784814,14.1144881 C168.089391,13.3051601 168.53356,12.6108523 169.117334,12.0315438 C169.701108,11.4522354 170.416008,11.0049819 171.262057,10.6897699 C172.108106,10.374558 173.064127,10.2169543 174.130149,10.2169543 C174.587015,10.2169543 175.056565,10.2382521 175.538813,10.2808483 C176.021061,10.3234446 176.499071,10.3788188 176.972858,10.4469727 C177.446646,10.5151267 177.899275,10.5960583 178.33076,10.6897699 C178.762245,10.7834816 179.147191,10.8814514 179.485611,10.9836823 L179.485611,22.2801407 Z" id="logotype" fill="#2A2D37"></path>
                        <g id="symbol">
                            <path d="M30.3653306,11.1872443 L31.2727686,12.7705604 C31.8707851,13.8131224 31.8707851,15.0976007 31.2727686,16.1409117 L31.2727686,16.1409117 L25.0895455,26.9245377 C24.4922727,27.9670997 23.3869835,28.6097133 22.1909504,28.6097133 L22.1909504,28.6097133 L16.627314,28.6097133 L22.8484711,17.7242278 L14.4115289,17.7242278 L12.5371488,14.4557361 L14.4115289,11.1872443 L30.3653306,11.1872443 Z M22.1913223,0.301833678 C23.3866116,0.301833678 24.4919008,0.943698347 25.0899174,1.9870093 L25.0899174,1.9870093 L29.5006612,9.67964876 L21.9741322,9.67964876 L16.5302479,0.301833678 Z" id="Combined-Shape" fill="#55BA7C"></path>
                            <path d="M11.6411653,22.0722805 L7.27430579,14.4560356 L11.6411653,6.83904184 L18.4439752,6.83904184 L14.6505868,0.302058368 L9.82554545,0.302058368 C8.6295124,0.302058368 7.52422314,0.943923037 6.92695041,1.98723399 L0.743727273,12.77086 C0.145710744,13.813422 0.145710744,15.0979003 0.743727273,16.1412113 L6.92695041,26.9248373 C7.52422314,27.9673993 8.6295124,28.6100129 9.82554545,28.6100129 L14.6156281,28.6100129 L18.3636446,22.0722805 L11.6411653,22.0722805 Z" id="Fill-53" fill="#2A2D37"></path>
                        </g>
                    </g>
                </g>
            </g>
        </g>
    </g>
</svg>