<?xml version="1.0" encoding="UTF-8"?>
<svg width="38px" height="34px" viewBox="0 0 38 34" version="1.1" xmlns="http://www.w3.org/2000/svg" xmlns:xlink="http://www.w3.org/1999/xlink">
    <title>D7CB828D-6C46-4D7B-9F17-739F9313AA14@3x</title>
    <g id="10-Add-ons" stroke="none" stroke-width="1" fill="none" fill-rule="evenodd">
        <g transform="translate(-309.000000, -80.000000)" id="Header">
            <g transform="translate(40.000000, 40.000000)">
                <g id="symbol" transform="translate(269.000000, 40.000000)">
                    <path d="M36.0588301,13.2848526 L37.1364127,15.1650405 C37.8465573,16.4030829 37.8465573,17.9284009 37.1364127,19.1673326 L37.1364127,19.1673326 L29.7938352,31.9728885 C29.0845739,33.2109309 27.7720429,33.9740346 26.3517536,33.9740346 L26.3517536,33.9740346 L19.7449354,33.9740346 L27.1325594,21.0475205 L17.1136906,21.0475205 L14.8878642,17.1661866 L17.1136906,13.2848526 L36.0588301,13.2848526 Z M26.3521952,0.358427492 C27.7716012,0.358427492 29.0841322,1.12064179 29.7942769,2.35957354 L29.7942769,2.35957354 L35.0320351,11.4945829 L26.094282,11.4945829 L19.6296694,0.358427492 Z" id="Combined-Shape" fill="#55BA7C"></path>
                    <path d="M13.8238838,26.2108331 L8.63823812,17.1665423 L13.8238838,8.12136218 L21.9022206,8.12136218 L17.3975718,0.358694312 L11.6678352,0.358694312 C10.247546,0.358694312 8.93501498,1.12090861 8.22575362,2.35984036 L0.883176136,15.1653963 C0.173031508,16.4034386 0.173031508,17.9287566 0.883176136,19.1676884 L8.22575362,31.9732443 C8.93501498,33.2112866 10.247546,33.9743903 11.6678352,33.9743903 L17.3560584,33.9743903 L21.806828,26.2108331 L13.8238838,26.2108331 Z" id="Fill-53" fill="#FFFFFF"></path>
                </g>
            </g>
        </g>
    </g>
</svg>