<?xml version="1.0" encoding="UTF-8"?>
<svg width="24px" height="24px" viewBox="0 0 24 24" version="1.1" xmlns="http://www.w3.org/2000/svg" xmlns:xlink="http://www.w3.org/1999/xlink">
    <title>519A27F4-40E5-45FF-9796-9BA2A6EFB6E0@1x</title>
    <g id="10-Add-ons" stroke="none" stroke-width="1" fill="none" fill-rule="evenodd">
        <g transform="translate(-316.000000, -1427.000000)">
            <rect fill="#FFFFFF" x="0" y="0" width="656" height="1590"></rect>
            <rect id="Email-BG" fill="#F4F4F8" x="0" y="0" width="656" height="1590"></rect>
            <g id="Footer/one" transform="translate(40.000000, 218.000000)">
                <g transform="translate(119.000000, 1166.000000)" id="Group-4">
                    <g transform="translate(115.000000, 43.000000)">
                        <g id="Twitter" transform="translate(42.000000, 0.000000)">
                            <rect id="Rectangle" x="0" y="0" width="24" height="24"></rect>
                            <path d="M12.095,5.55 L12.3792383,5.55450858 C13.9001018,5.61155761 15.3529991,6.20817492 16.4667146,7.24003175 C16.6560256,7.41542825 16.659345,7.713776 16.4739834,7.89334116 L16.4739834,7.89334116 L14.8533232,9.46332164 C14.6800641,9.63116273 14.4052775,9.63253288 14.2303532,9.46642792 C12.2823104,7.61660076 8.78700219,9.12572855 8.78698176,12.0043623 C8.76962137,13.826292 10.2579892,15.3206477 12.1117688,15.3400275 C13.5847391,15.3400275 14.5704949,14.6123436 14.9663952,13.6964496 L14.9663952,13.6964496 L14.984,13.65 L12.0965274,13.6500597 C11.8756135,13.6500597 11.6918799,13.490872 11.6537775,13.2809477 L11.6537775,13.2809477 L11.6465274,13.2000597 L11.6465274,11.1400853 C11.6465274,10.8915571 11.8479993,10.6900853 12.0965274,10.6900853 L12.0965274,10.6900853 L17.9034698,10.6900853 C18.118679,10.6900853 18.3037644,10.8424626 18.3450938,11.0536659 C18.4151736,11.4117912 18.4503032,11.7757115 18.4500019,12.1400728 C18.4500019,15.8383234 15.8410614,18.45 12.0965274,18.45 C8.4825748,18.45 5.55,15.5638931 5.55,12.0000746 C5.55,8.4362561 8.4825748,5.55014918 12.095,5.55 L12.095,5.55 Z" id="Google" fill="#989CAC"></path>
                        </g>
                    </g>
                </g>
            </g>
        </g>
    </g>
</svg>